sfk_cyclingleg_x_-0.11_y_-0.05_states
version=1
nRows=11
nColumns=53
inDegrees=yes

# SIMM Motion File Header:
name sfk_cyclingleg_x_-0.11_y_-0.05_states
datacolumns 53
datarows 11
otherdata 1
range 0.23651928 0.23786748
endheader
time	/jointset/bb/crank_angle/value	/jointset/bb/crank_angle/speed	/jointset/spindle/pedal_angle_r/value	/jointset/spindle/pedal_angle_r/speed	/jointset/ground_pelvis/pelvis_tilt/value	/jointset/ground_pelvis/pelvis_tilt/speed	/jointset/ground_pelvis/pelvis_list/value	/jointset/ground_pelvis/pelvis_list/speed	/jointset/ground_pelvis/pelvis_rotation/value	/jointset/ground_pelvis/pelvis_rotation/speed	/jointset/ground_pelvis/pelvis_tx/value	/jointset/ground_pelvis/pelvis_tx/speed	/jointset/ground_pelvis/pelvis_ty/value	/jointset/ground_pelvis/pelvis_ty/speed	/jointset/ground_pelvis/pelvis_tz/value	/jointset/ground_pelvis/pelvis_tz/speed	/jointset/hip_r/hip_angle_r/value	/jointset/hip_r/hip_angle_r/speed	/jointset/hip_r/hip_adduction_r/value	/jointset/hip_r/hip_adduction_r/speed	/jointset/hip_r/hip_rotation_r/value	/jointset/hip_r/hip_rotation_r/speed	/jointset/knee_r/knee_angle_r/value	/jointset/knee_r/knee_angle_r/speed	/jointset/knee_r/tib_tx_r/value	/jointset/knee_r/tib_tx_r/speed	/jointset/knee_r/tib_ty_r/value	/jointset/knee_r/tib_ty_r/speed	/jointset/tib_pat_r/pat_angle_r/value	/jointset/tib_pat_r/pat_angle_r/speed	/jointset/tib_pat_r/pat_tx_r/value	/jointset/tib_pat_r/pat_tx_r/speed	/jointset/tib_pat_r/pat_ty_r/value	/jointset/tib_pat_r/pat_ty_r/speed	/jointset/ankle_r/ankle_angle_r/value	/jointset/ankle_r/ankle_angle_r/speed	/jointset/subtalar_r/subtalar_angle_r/value	/jointset/subtalar_r/subtalar_angle_r/speed	/jointset/mtp_r/mtp_angle_r/value	/jointset/mtp_r/mtp_angle_r/speed	/forceset/bifemlh_r/activation	/forceset/bifemlh_r/fiber_length	/forceset/bifemsh_r/activation	/forceset/bifemsh_r/fiber_length	/forceset/glut_max2_r/activation	/forceset/glut_max2_r/fiber_length	/forceset/vas_int_r/activation	/forceset/vas_int_r/fiber_length	/forceset/med_gas_r/activation	/forceset/med_gas_r/fiber_length	/forceset/tib_ant_r/activation	/forceset/tib_ant_r/fiber_length
      0.23651928	   -123.69692288	   -480.13863232	    141.81079811	    553.63501976	      0.00000000	     -0.00000000	      0.00000000	      0.00000000	     -0.00000000	     -0.00000000	     -0.11000000	     -0.00000000	     -0.05000000	     -0.00000000	     -0.00000000	     -0.00000000	     49.53777436	   -219.05788391	      4.37920600	     -0.41150385	      1.28734603	     22.90647638	    -53.60898828	    261.92138527	      0.00425863	     -0.02733871	     -0.47406568	      0.07527737	     17.22193868	     -9.16090964	      0.04466678	      0.07420362	     -0.02316146	     -0.00989515	     22.59575763	     30.34787315	      0.00000000	      0.00000000	      0.00000000	      0.00000000	     -0.00500974	      0.13191657	     -0.00500974	      0.16976420	     -0.00500974	      0.13797899	     -0.00500974	      0.12489868	     -0.00500974	      0.14818181	     -0.00500974	      0.11614352
      0.23665412	   -123.76166311	   -480.13863232	    141.88544479	    553.58230997	      0.00000000	     -0.00000000	      0.00000000	      0.00000000	     -0.00000000	     -0.00000000	     -0.11000000	     -0.00000000	     -0.05000000	     -0.00000000	     -0.00000000	     -0.00000000	     49.50824076	   -219.00727629	      4.37915040	     -0.41322815	      1.29043444	     22.90320852	    -53.57368258	    261.75993300	      0.00425494	     -0.02736783	     -0.47405553	      0.07520195	     17.22070223	     -9.17916721	      0.04467678	      0.07413847	     -0.02316279	     -0.00989144	     22.59985364	     30.40730533	      0.00000000	      0.00000000	      0.00000000	      0.00000000	     -0.00502710	      0.13190635	     -0.00502710	      0.16978458	     -0.00502710	      0.13795845	     -0.00502710	      0.12487097	     -0.00502710	      0.14819269	     -0.00502710	      0.11614007
      0.23678919	   -123.82651746	   -480.13863232	    141.96021590	    553.52917600	      0.00000000	     -0.00000000	      0.00000000	      0.00000000	     -0.00000000	     -0.00000000	     -0.11000000	     -0.00000000	     -0.05000000	     -0.00000000	     -0.00000000	     -0.00000000	     49.47866197	   -218.95617566	      4.37909447	     -0.41495070	      1.29352784	     22.89988805	    -53.53833652	    261.59756780	      0.00425124	     -0.02739677	     -0.47404538	      0.07512624	     17.21946113	     -9.19742259	      0.04468679	      0.07407304	     -0.02316413	     -0.00988770	     22.60396490	     30.46673524	      0.00000000	      0.00000000	      0.00000000	      0.00000000	     -0.00504449	      0.13189610	     -0.00504449	      0.16980497	     -0.00504449	      0.13793788	     -0.00504449	      0.12484324	     -0.00504449	      0.14820685	     -0.00504449	      0.11613660
      0.23692390	   -123.89119698	   -480.13863232	    142.03477828	    553.47585288	      0.00000000	     -0.00000000	      0.00000000	      0.00000000	     -0.00000000	     -0.00000000	     -0.11000000	      0.00000000	     -0.05000000	     -0.00000000	     -0.00000000	     -0.00000000	     49.44916982	   -218.90480884	      4.37903845	     -0.41666381	      1.29661247	     22.89652948	    -53.50310763	    261.43501135	      0.00424755	     -0.02742539	     -0.47403527	      0.07505058	     17.21822092	     -9.21559410	      0.04469677	      0.07400765	     -0.02316546	     -0.00988395	     22.60807306	     30.52589725	      0.00000000	      0.00000000	      0.00000000	      0.00000000	     -0.00506183	      0.13188588	     -0.00506183	      0.16982531	     -0.00506183	      0.13791736	     -0.00506183	      0.12481558	     -0.00506183	      0.14821772	     -0.00506183	      0.11613314
      0.23705897	   -123.95604711	   -480.13863232	    142.10953010	    553.42205366	      0.00000000	     -0.00000000	      0.00000000	      0.00000000	     -0.00000000	     -0.00000000	     -0.11000000	      0.00000000	     -0.05000000	     -0.00000000	     -0.00000000	     -0.00000000	     49.41960684	   -218.85290012	      4.37898206	     -0.41837661	      1.29970476	     22.89311453	    -53.46780784	    261.27139292	      0.00424385	     -0.02745385	     -0.47402513	      0.07497456	     17.21697498	     -9.23377837	      0.04470676	      0.07394194	     -0.02316680	     -0.00988017	     22.61220005	     30.58510635	      0.00000000	      0.00000000	      0.00000000	      0.00000000	     -0.00507922	      0.13187563	     -0.00507922	      0.16984568	     -0.00507922	      0.13789678	     -0.00507922	      0.12478786	     -0.00507922	      0.14823183	     -0.00507922	      0.11612966
      0.23719355	   -124.02066743	   -480.13863232	    142.18400978	    553.36810880	      0.00000000	     -0.00000000	      0.00000000	      0.00000000	     -0.00000000	     -0.00000000	     -0.11000000	      0.00000000	     -0.05000000	     -0.00000000	     -0.00000000	     -0.00000000	     49.39015564	   -218.80076918	      4.37892564	     -0.42007850	      1.30278564	     22.88966398	    -53.43265517	    261.10772111	      0.00424015	     -0.02748197	     -0.47401505	      0.07489866	     17.21573102	     -9.25186276	      0.04471671	      0.07387631	     -0.02316812	     -0.00987638	     22.61632037	     30.64399607	      0.00000000	      0.00000000	      0.00000000	      0.00000000	     -0.00509655	      0.13186541	     -0.00509655	      0.16986598	     -0.00509655	      0.13787627	     -0.00509655	      0.12476026	     -0.00509655	      0.14824269	     -0.00509655	      0.11612619
      0.23732861	   -124.08551158	   -480.13863232	    142.25874011	    553.31363745	      0.00000000	     -0.00000000	      0.00000000	      0.00000000	     -0.00000000	     -0.00000000	     -0.11000000	      0.00000000	     -0.05000000	     -0.00000000	     -0.00000000	     -0.00000000	     49.36060950	   -218.74804869	      4.37886879	     -0.42178142	      1.30587672	     22.88615328	    -53.39740292	    260.94284436	      0.00423644	     -0.02750995	     -0.47400494	      0.07482234	     17.21448030	     -9.26997380	      0.04472668	      0.07381030	     -0.02316946	     -0.00987256	     22.62046291	     30.70297881	      0.00000000	      0.00000000	      0.00000000	      0.00000000	     -0.00511394	      0.13185514	     -0.00511394	      0.16988633	     -0.00511394	      0.13785569	     -0.00511394	      0.12473256	     -0.00511394	      0.14825677	     -0.00511394	      0.11612270
      0.23746307	   -124.15007418	   -480.13863232	    142.33313864	    553.25906238	      0.00000000	     -0.00000000	      0.00000000	      0.00000000	     -0.00000000	     -0.00000000	     -0.11000000	      0.00000000	     -0.05000000	     -0.00000000	     -0.00000000	     -0.00000000	     49.33119875	   -218.69514866	      4.37881196	     -0.42347207	      1.30895391	     22.88260948	    -53.36232590	    260.77804594	      0.00423273	     -0.02753757	     -0.47399488	      0.07474620	     17.21323259	     -9.28796998	      0.04473660	      0.07374443	     -0.02317079	     -0.00986874	     22.62459538	     30.76159401	      0.00000000	      0.00000000	      0.00000000	      0.00000000	     -0.00513125	      0.13184492	     -0.00513125	      0.16990658	     -0.00513125	      0.13783519	     -0.00513125	      0.12470500	     -0.00513125	      0.14826762	     -0.00513125	      0.11611921
      0.23759811	   -124.21491061	   -480.13863232	    142.40784531	    553.20391194	      0.00000000	     -0.00000000	      0.00000000	      0.00000000	     -0.00000000	     -0.00000000	     -0.11000000	      0.00000000	     -0.05000000	     -0.00000000	     -0.00000000	     -0.00000000	     49.30167044	   -218.64161266	      4.37875466	     -0.42516498	      1.31204366	     22.87900175	    -53.32712245	    260.61190567	      0.00422901	     -0.02756507	     -0.47398479	      0.07466958	     17.21197715	     -9.30600568	      0.04474655	      0.07367813	     -0.02317212	     -0.00986488	     22.62875330	     30.82034486	      0.00000000	      0.00000000	      0.00000000	      0.00000000	     -0.00514864	      0.13183465	     -0.00514864	      0.16992691	     -0.00514864	      0.13781461	     -0.00514864	      0.12467733	     -0.00514864	      0.14828166	     -0.00514864	      0.11611571
      0.23773246	   -124.27941695	   -480.13863232	    142.48216422	    553.14869807	      0.00000000	     -0.00000000	      0.00000000	      0.00000000	     -0.00000000	     -0.00000000	     -0.11000000	      0.00000000	     -0.05000000	     -0.00000000	     -0.00000000	     -0.00000000	     49.27229967	   -218.58793848	      4.37869743	     -0.42684435	      1.31511720	     22.87536340	    -53.29212054	    260.44596931	      0.00422531	     -0.02759219	     -0.47397477	      0.07459319	     17.21072569	     -9.32391255	      0.04475645	      0.07361202	     -0.02317344	     -0.00986102	     22.63289791	     30.87868322	      0.00000000	      0.00000000	      0.00000000	      0.00000000	     -0.00516593	      0.13182442	     -0.00516593	      0.16994713	     -0.00516593	      0.13779413	     -0.00516593	      0.12464981	     -0.00516593	      0.14829250	     -0.00516593	      0.11611221
      0.23786748	   -124.34424399	   -480.13863232	    142.55684512	    553.09286151	      0.00000000	     -0.00000000	      0.00000000	      0.00000000	     -0.00000000	     -0.00000000	     -0.11000000	      0.00000000	     -0.05000000	     -0.00000000	     -0.00000000	     -0.00000000	     49.24279018	   -218.53358324	      4.37863968	     -0.42852712	      1.31820552	     22.87165737	    -53.25696711	    260.27856021	      0.00422158	     -0.02761920	     -0.47396470	      0.07451627	     17.20946559	     -9.34187081	      0.04476638	      0.07354543	     -0.02317477	     -0.00985712	     22.63707102	     30.93719666	      0.00000000	      0.00000000	      0.00000000	      0.00000000	     -0.00518332	      0.13181414	     -0.00518332	      0.16996743	     -0.00518332	      0.13777354	     -0.00518332	      0.12462217	     -0.00518332	      0.14830650	     -0.00518332	      0.11610869
